<svg title="Deutsche Feuerwehr-Gewerkschaft (dfeug)" width="291px" height="111px" viewBox="0 0 291 111" version="1.1" xmlns="http://www.w3.org/2000/svg" xmlns:xlink="http://www.w3.org/1999/xlink" class="db dn-l w-auto" alt="Deutsche Feuerwehr-Gewerkschaft (dfeug)">
                            <title>Deutsche Feuerwehr-Gewerkschaft (dfeug)</title>
                            <g id="Page-1" stroke="none" stroke-width="1" fill="none" fill-rule="evenodd">
                                <g id="dfeug_Logo_silber-screen" fill="#000000" fill-rule="nonzero">
                                    <path d="M107.07,25.72 L93.57,25.72 L93.57,22.67 C93.57,16.8 96.5,13.75 101.67,13.75 C106.84,13.75 110,16.33 111.76,18.21 L121.62,8.59 C118.22,5.3 111.29,0.96 100.5,0.96 C87.12,0.96 77.97,8.59 77.97,22.91 L77.97,25.73 L60.95,25.73 L60.95,2.38 L45.34,2.38 L45.34,34.3 C41.94,28.32 36.07,24.33 27.39,24.33 C12.25,24.33 0.75,37.12 0.75,55.54 C0.75,73.96 12.25,86.87 27.39,86.87 C36.07,86.87 41.94,82.88 45.34,76.9 L45.34,85.47 L60.95,85.47 L60.95,38.06 L77.97,38.06 L77.97,85.47 L93.58,85.47 L93.58,38.06 L107.08,38.06 L107.08,25.74 L107.07,25.72 Z M45.35,55.53 C45.35,66.21 39.48,73.84 30.92,73.84 C22.36,73.84 16.37,66.21 16.37,55.53 C16.37,44.85 22.24,37.22 30.92,37.22 C39.6,37.22 45,44.61 45.35,54.82 L45.35,55.52 L45.35,55.53 Z M136.41,74.3 C128.55,74.3 123.27,68.55 122.09,59.87 L163.05,59.87 L163.05,54.59 C163.05,36.64 150.96,24.31 135,24.31 C119.04,24.31 106.84,37.57 106.84,55.53 C106.84,73.49 118.57,86.86 136.18,86.86 C152.26,86.86 159.65,77.82 163.17,70.31 L148.97,65.85 C147.21,69.61 143.92,74.3 136.41,74.3 L136.41,74.3 Z M135.01,36.75 C142.4,36.75 146.39,42.5 147.21,48.72 L122.57,48.72 C124.09,41.68 128.2,36.75 135.01,36.75 Z M208.35,25.72 L223.96,25.72 L223.96,85.45 L208.59,85.45 L208.59,76.3 C205.19,82.87 199.08,86.86 190.64,86.86 C178.08,86.86 170.1,79 170.1,67.03 L170.1,25.72 L185.82,25.72 L185.82,65.15 C185.82,70.43 189.11,73.83 194.86,73.83 C203.31,73.83 208.35,66.09 208.35,54.82 L208.35,25.72 L208.35,25.72 Z M274.65,25.72 L274.65,33.58 C271.36,28.06 265.61,24.31 257.4,24.31 C242.73,24.31 231.35,36.28 231.35,54.59 C231.35,72.9 242.73,84.98 257.4,84.98 C265.62,84.98 271.37,81.22 274.65,75.71 L274.65,87.44 C274.65,94.48 269.96,98.12 261.74,98.12 C253.52,98.12 248.36,94.48 245.31,89.55 L232.64,96.83 C238.04,104.57 246.49,110.79 261.86,110.79 C278.76,110.79 290.38,103.87 290.38,87.44 L290.38,25.72 L274.66,25.72 L274.65,25.72 Z M260.81,71.95 C252.71,71.95 246.96,64.44 246.96,54.58 C246.96,44.72 252.71,37.21 260.81,37.21 C268.91,37.21 274.66,44.72 274.66,54.58 C274.66,64.44 269.03,71.95 260.81,71.95 Z" id="Shape"></path>
                                </g>
                            </g>
                        </svg>